# xmcd
#
# Track frame offsets:
#	150
#	10468
#	23050
#	34122
#	47249
#	57549
#	69900
#	84877
#	94811
#	107395
#	115213
#	128238
#
# Disc length: 1818 seconds
#
# Revision: 1
# Processed by: cddbd v1.5.2PL0 Copyright (c) Steve Scherf et al.
# Submitted via: audiograbber 1.83.01
#
DISCID=9507180c
DTITLE=Gene Pitney - Gene Pitney Sings World Wide Winners
DYEAR=1963
DGENRE=Oldies
TTITLE0=Mr Moon, Mr Cupid And I
TTITLE1=Only Love Can Break A Heart
TTITLE2=If I Didn't Have A Dime
TTITLE3=(The Man Who Shot) Liberty Valence
TTITLE4=Lousiana Mama
TTITLE5=Every Breath I Take
TTITLE6=Tower Tall
TTITLE7=Hello Mary Lou
TTITLE8=Half Heaven, Half Heartache
TTITLE9=Garden Of Love
TTITLE10=Town Without Pity
TTITLE11=(I Wanna) Love My Life Away
EXTD=
EXTT0=
EXTT1=
EXTT2=
EXTT3=
EXTT4=
EXTT5=
EXTT6=
EXTT7=
EXTT8=
EXTT9=
EXTT10=
EXTT11=
PLAYORDER=
